<svg width="465" height="444" viewBox="0 0 465 444" fill="none" xmlns="http://www.w3.org/2000/svg">
<path d="M38.8167 85.5003C92.0167 73.9003 178.983 107.667 215.817 126L221.817 142.5C221.317 147.834 217.717 159.5 207.317 163.5C189.717 152.7 157.984 151.667 144.317 152.5C139.15 152.667 126.017 153.5 114.817 155.5C103.617 159.1 89.4835 159 83.8168 158.5C88.6168 160.9 103.817 188.167 110.817 201.5L130.817 240.5C119.483 259 93.0168 295.2 77.8168 292C30.2168 250.8 7.9835 156.5 2.81683 114.5L1.31675 109C1.15008 108.167 0.916747 104.1 1.31675 94.5002C1.81675 82.0002 38.3167 85.0003 38.8167 85.5003Z" fill="#FADBBF" stroke="black"/>
<path d="M200.816 141C162.416 133.8 127.436 147.167 114.436 155C175.936 146.5 194.316 156.667 208.316 164L222.816 152.5C226.316 149.834 226.816 143.8 200.816 141Z" fill="#CD9570"/>
<path d="M61.8161 263C88.2161 255 104.483 216 108.817 198.5L113.816 208C113.816 215.834 113.316 232.3 113.316 233.5C113.316 234.7 109.65 263 107.816 277C98.8161 283.334 81.5164 294.7 78.3164 291.5C36.8168 258.5 14.3162 171 14.8162 170.5C23.3162 200.5 61.3161 263 61.8161 263Z" fill="#CD9570"/>
<path d="M3.31681 114.5C2.81681 119.334 5.01681 130.3 17.8168 135.5C18.9835 130.167 17.7168 118.5 3.31681 114.5Z" fill="#CD9570"/>
<path d="M36.3168 128C38.6502 128.334 44.2168 130.4 47.8168 136C54.3168 143.5 72.3168 158.6 92.3168 159" stroke="black" stroke-width="0.8" stroke-linecap="round"/>
<path d="M6.31685 121C1.48352 110.834 -4.36378 89.4 10.4362 87C9.93622 87 32.8168 82.5003 55.3168 89.0003" stroke="black" stroke-width="0.8" stroke-linecap="round"/>
<path d="M34.3168 157C37.9835 182.667 51.4168 240.3 75.8168 265.5" stroke="black" stroke-width="0.8" stroke-linecap="round"/>
<path d="M7.81683 119.5C10.1502 121.167 15.3168 126.4 17.3168 134" stroke="black" stroke-width="0.8" stroke-linecap="round"/>
<path d="M54.8172 309.5C52.0172 301.1 56.9839 281 59.8172 272C66.8173 283.5 76.8171 291.5 77.3171 291.5C85.3171 281.9 98.3171 256.833 103.817 245.5C104.317 244.333 106.017 239.4 108.817 229C110.417 218.6 109.484 205.667 108.817 200.5C106.317 195.667 101.417 186 101.817 186C114.617 186.4 139.817 221.833 150.817 239.5C157.317 238.5 159.817 245.5 160.317 245.5C180.317 240 189.317 269.5 189.817 269.5C198.217 268.7 203.317 274.5 204.817 277.5C216.017 275.9 222.484 281.5 224.317 284.5C227.917 278.5 235.484 276.333 238.817 276L239.817 253L249.317 267L267.317 287L277.817 294L295.817 289.5L318.817 278.5L332.817 268.5L340.826 262.271C341.254 261.887 341.592 261.635 341.817 261.5L340.826 262.271C339.672 263.304 337.86 265.29 335.817 268.5C326.317 281 318.317 307.5 318.817 307.5C324.417 306.7 329.484 307.166 331.317 307.5C331.65 308 332.717 311.4 334.317 321C339.117 321.4 346.984 328.833 350.317 332.5L359.317 341C361.484 342.166 366.817 344.7 370.817 345.5C379.617 346.3 386.484 354.166 388.817 358C406.817 367 435.817 392.5 436.317 392.5C446.717 410.5 449.65 433.666 449.817 443H98.8171C98.3171 440.5 99.8171 422 100.317 422C93.8171 401 95.8171 366 95.8171 365.5C84.2171 355.5 70.6504 332 65.3171 321.5C61.8171 317.333 54.8172 309.1 54.8172 309.5Z" fill="#3C3E4B" stroke="black"/>
<path d="M55.4362 308.5C51.8362 303.7 57.5916 280.167 59.9249 272L63.4362 277.5L67.9362 282.5L76.9362 291.5C65.7362 305.5 57.1029 310.667 55.4362 308.5Z" fill="#121117"/>
<path d="M101.436 186.5C103.436 185 109.539 184.67 108.903 201.666L101.436 186.5Z" fill="#121117"/>
<path d="M212.817 228.5C222.417 225.7 221.15 215.667 219.317 211L239.317 217.5C240.15 219.333 239.617 223.9 230.817 227.5C219.817 232 212.317 229 212.817 228.5Z" fill="#AB2D17" stroke="black"/>
<path d="M334.817 443C334.017 438.2 320.484 405.667 313.817 390C313.15 390 311.417 390.5 309.817 392.5C312.217 396.1 323.15 427.667 328.317 443H334.817Z" fill="white"/>
<path d="M196.317 360L177.817 375L178.317 381L198.317 363.5H196.817L196.317 360Z" fill="white"/>
<path d="M227.317 218C205.317 209.6 208.817 183.5 213.317 171.5V158L242.317 126.5L274.317 108.5C290.484 107.833 323.317 106.3 325.317 105.5C327.317 104.7 357.484 114.166 372.317 119L389.817 160.5L377.317 204C376.517 209.2 371.65 217.5 369.317 221C376.817 218 389.317 202 389.817 202C402.217 198 393.984 215 388.317 224C372.717 247.2 357.15 251.666 351.317 251C347.984 254.5 340.417 262.3 336.817 265.5C332.017 270.7 319.484 301.333 313.817 316C313.484 316.333 312.817 317.4 312.817 319C312.817 320.6 320.817 329.666 324.817 334L296.317 369.5L250.817 388.5C241.984 365.833 223.917 317.3 222.317 304.5C220.717 291.7 225.984 288.5 228.817 288.5L239.317 289V251.5C229.317 241 227.317 218.5 227.317 218Z" fill="#F7DCC1" stroke="black"/>
<path d="M222.317 285.5C227.517 279.1 235.817 276.5 239.317 276V289.5C236.317 289 230.017 288.3 228.817 289.5C227.617 290.7 228.317 297.333 228.817 300.5C228.317 335 255.817 377 256.317 377C282.317 369 308.817 340 318.817 326.5L312.317 320C311.817 317 317.317 307.5 317.817 307C325.817 305.8 330.484 307.5 331.817 308.5C332.15 310.167 333.017 315.4 333.817 323C336.217 327.4 336.817 333.5 336.817 336C334.417 340 330.15 356 328.317 363.5C326.717 379.1 309.983 394.333 301.817 400C297.817 400 295.483 393.667 294.817 390.5C295.617 384.5 292.15 375 290.317 371C278.817 381 251.317 391 251.317 390.5C241.717 381.7 234.65 360.167 232.317 350.5C216.817 359.5 195.317 363.5 195.817 363.5C196.817 347.5 212.317 298 213.317 293.5C214.317 289 221.817 285.5 222.317 285.5Z" fill="#F1782A" stroke="black"/>
<path d="M231.317 351C233.65 349 239.317 346.8 243.317 354" stroke="black" stroke-linecap="round"/>
<path d="M277.817 366.5C281.15 364.833 287.917 363.1 290.317 371.5" stroke="black" stroke-linecap="round"/>
<path d="M291.817 373C307.817 359 325.665 332.713 332.817 316.5L335.317 328.5C328.705 344.383 305.761 377.687 295.317 388.5L294.317 380.5L291.817 373Z" fill="white"/>
<path d="M225.317 283C220.317 300 222.817 339.5 224.317 354L217.317 357L208.795 359.654L208.817 360C208.809 359.886 208.802 359.771 208.795 359.654C207.89 344.392 212.657 304.775 217.817 288.5L219.817 287L222.317 286L225.317 283Z" fill="white"/>
<path d="M217.817 357C216.317 342.5 217.817 302.5 222.817 285.5L220.817 286.5C215.617 302.9 213.817 343 214.817 358L217.817 357Z" fill="black"/>
<path d="M293.317 379C305.817 365.5 326.665 337.212 333.817 321L334.817 326C326.817 341 304.761 371.687 294.317 382.5L293.317 379Z" fill="black"/>
<path d="M229.436 288.5C230.636 284.1 235.984 281 238.817 280V288.895L233.936 288.5H229.436Z" fill="#983C00"/>
<path d="M323.817 317.357C324.817 311 315.317 311 315.317 312.5C314.117 313.7 312.65 317.667 312.317 319.5L318.817 326.357C319.15 326.191 320.617 324.157 323.817 317.357Z" fill="#983C00"/>
<path d="M270.317 308.5C257.917 303.3 244.484 271 239.317 255.5L263.317 283L276.817 294L285.317 292.5L318.317 279C321.317 277.167 327.717 273.4 329.317 273C287.317 315 270.317 308 270.317 308.5Z" fill="#CC936D"/>
<path d="M145.817 246C150.15 261.333 158.417 295.6 156.817 310M162.817 252C166.65 261 173.917 282.1 172.317 294.5M191.817 276.5C190.484 292.5 185.917 326.3 178.317 333.5M175.817 357C176.65 378.5 182.117 425.8 197.317 443M373.817 348C379.65 350.833 390.017 362.1 384.817 384.5M388.817 412C386.15 420.833 379.417 439.4 373.817 443" stroke="black" stroke-linecap="round"/>
<path d="M339.817 182C337.817 184.4 327.317 185.333 322.317 185.5C326.317 181.1 334.65 181 338.317 181.5C338.817 181.5 339.817 181.6 339.817 182Z" fill="#CB8D5E" fill-opacity="0.6"/>
<path d="M276.257 177.92C273.532 178.193 268.828 173.011 266.817 170.386C271.94 170.065 275.145 174.542 276.107 176.82C276.294 177.092 276.587 177.693 276.257 177.92Z" fill="#CB8D5E" fill-opacity="0.6"/>
<path d="M245.817 266.5C245.817 266.9 245.484 269.333 245.317 270.5" stroke="black" stroke-width="0.6" stroke-linecap="round"/>
<path d="M248.317 269C248.317 269.4 248.484 273.833 248.317 275" stroke="black" stroke-width="0.6" stroke-linecap="round"/>
<path d="M250.817 274C250.817 274.4 250.984 278.833 250.817 280" stroke="black" stroke-width="0.6" stroke-linecap="round"/>
<path d="M253.817 277C253.817 277.533 253.817 283.444 253.817 285" stroke="black" stroke-width="0.6" stroke-linecap="round"/>
<path d="M256.817 282C256.817 282.533 256.817 288.444 256.817 290" stroke="black" stroke-width="0.6" stroke-linecap="round"/>
<path d="M261.817 288C261.817 288.533 261.817 294.444 261.817 296" stroke="black" stroke-width="0.6" stroke-linecap="round"/>
<path d="M264.817 292C264.817 292.533 264.817 298.444 264.817 300" stroke="black" stroke-width="0.6" stroke-linecap="round"/>
<path d="M267.817 295C267.817 295.533 267.817 301.444 267.817 303" stroke="black" stroke-width="0.6" stroke-linecap="round"/>
<path d="M273.356 298C273.254 298.523 272.116 304.324 271.817 305.851" stroke="black" stroke-width="0.6" stroke-linecap="round"/>
<path d="M275.356 300C275.254 300.523 274.116 306.324 273.817 307.851" stroke="black" stroke-width="0.6" stroke-linecap="round"/>
<path d="M279.356 299C279.254 299.523 278.116 305.324 277.817 306.851" stroke="black" stroke-width="0.6" stroke-linecap="round"/>
<path d="M285.356 297C285.254 297.523 284.116 303.324 283.817 304.851" stroke="black" stroke-width="0.6" stroke-linecap="round"/>
<path d="M289.356 296C289.254 296.523 288.116 302.324 287.817 303.851" stroke="black" stroke-width="0.6" stroke-linecap="round"/>
<path d="M294.356 293C294.254 293.523 293.116 299.324 292.817 300.851" stroke="black" stroke-width="0.6" stroke-linecap="round"/>
<path d="M300.356 292C300.254 292.333 299.116 296.028 298.817 297" stroke="black" stroke-width="0.6" stroke-linecap="round"/>
<path d="M304.356 290C304.254 290.333 303.116 294.028 302.817 295" stroke="black" stroke-width="0.6" stroke-linecap="round"/>
<path d="M308.817 288C308.75 288.267 308.012 291.222 307.817 292" stroke="black" stroke-width="0.6" stroke-linecap="round"/>
<path d="M312.817 285C312.817 285.2 312.817 287.417 312.817 288" stroke="black" stroke-width="0.6" stroke-linecap="round"/>
<path d="M317.817 283C317.817 283.2 317.817 285.417 317.817 286" stroke="black" stroke-width="0.6" stroke-linecap="round"/>
<path d="M321.817 281C321.817 281.133 321.817 282.611 321.817 283" stroke="black" stroke-width="0.6" stroke-linecap="round"/>
<path d="M324.817 278C324.817 278.133 324.817 279.611 324.817 280" stroke="black" stroke-width="0.6" stroke-linecap="round"/>
<path d="M192.317 275.5C193.817 293.833 193.217 331 178.817 333C178.317 333 188.817 321 192.317 275.5Z" fill="black" fill-opacity="0.3"/>
<path d="M159.317 255C160.517 253 160.484 247.833 160.317 245.5C157.817 239 149.817 239.5 150.317 239.5C152.717 241.5 157.317 250.667 159.317 255Z" fill="black" fill-opacity="0.3"/>
<path d="M146.317 245.5C153.984 257.5 166.917 287 157.317 309C157.936 295.5 153.436 269 146.317 245.5Z" fill="black" fill-opacity="0.3"/>
<path d="M132.317 347L123.317 377L130.817 364L137.317 356L145.317 345L164.817 316.5L170.317 305L132.317 347Z" fill="black" fill-opacity="0.3"/>
<path d="M101.817 328C105.484 336 112.117 357.1 109.317 377.5" stroke="black" stroke-linecap="round"/>
<path d="M278.317 334C296.317 322.8 309.15 298.333 313.317 287.5L308.817 292C307.317 293.833 302.217 300 293.817 310C285.417 320 280.65 327.833 279.317 330.5C279.15 330.667 278.717 331.6 278.317 334Z" fill="#D2976B"/>
<path d="M282.317 324.5C280.984 326.833 278.317 332 278.317 334" stroke="black" stroke-width="0.4" stroke-linecap="round"/>
<path d="M288.817 316.5C294.984 308.5 308.317 291.7 312.317 288.5" stroke="black" stroke-width="0.4" stroke-linecap="round"/>
<path d="M249.817 295C250.484 303.333 250.817 320.9 246.817 324.5" stroke="black" stroke-width="0.4" stroke-linecap="round"/>
<path d="M233.317 283.5C231.65 284.5 228.117 287.7 228.117 292.5" stroke="black" stroke-linecap="round"/>
<path d="M316.817 329.5C318.484 327.333 322.217 322 323.817 318" stroke="black" stroke-linecap="round"/>
<path d="M227.317 201.5C225.317 218.667 231.917 260 274.317 288C274.317 288.496 317.194 293.921 357.443 243.112C357.978 242.393 358.271 242 358.317 242C358.026 242.374 357.735 242.744 357.443 243.112C352.097 250.307 322.634 290.182 275.817 297C274.317 296.5 220.317 252 227.317 201.5Z" fill="#0C0807"/>
<path d="M173.317 300C168.817 309.667 155.317 334.3 137.317 355.5C133.317 360.5 124.917 372 123.317 378" stroke="black" stroke-linecap="round"/>
<path d="M320.817 255C303.617 242.6 270.317 239.167 255.817 239C255.817 242.2 256.484 245.333 256.817 246.5C262.317 256 285.317 267 289.317 269C293.317 271 299.817 270.5 300.317 270.5C306.317 268.9 316.484 259.5 320.817 255Z" fill="black"/>
<path d="M263.817 245.5C263.017 244.7 263.484 241.5 263.817 240C280.617 240.4 304.817 248.5 314.817 252.5C314.017 264.5 302.817 269.167 297.317 270C281.717 267.2 267.317 256.5 261.817 250C261.417 248.4 262.984 246.333 263.817 245.5Z" fill="white"/>
<path d="M263.817 245.5C263.017 244.7 263.484 241.5 263.817 240C280.617 240.4 304.817 248.5 314.817 252.5C314.017 264.5 302.817 269.167 297.317 270C281.717 267.2 267.317 256.5 261.817 250C261.417 248.4 262.984 246.333 263.817 245.5ZM263.817 245.5C265.984 247.333 271.517 251.2 276.317 252" stroke="black" stroke-linecap="round"/>
<path d="M313.817 256.5C311.15 257 304.217 257.7 297.817 256.5" stroke="black" stroke-linecap="round"/>
<path d="M208.317 443C200.317 439.4 185.103 404 178.936 387C178.936 407.8 188.936 432.5 197.817 443H208.317Z" fill="black" fill-opacity="0.3"/>
<path d="M271.272 141.496C261.28 140.715 249.143 145.504 244.317 148L243.317 134.5L283.317 109.5L314.817 112L352.817 136L382.817 160L379.317 209L385.317 211C386.15 209.833 388.617 207.3 391.817 206.5C395.017 205.7 395.15 212.167 394.817 215.5C392.484 217.833 387.517 222.4 386.317 222C385.117 225.2 379.484 231 376.817 233.5C374.484 234.833 369.217 237.5 366.817 237.5C364.417 237.5 362.15 236.833 361.317 236.5C365.817 227.5 374.917 209.4 375.317 209C364.517 202.6 360.484 186.333 359.817 179C340.317 171.5 339.817 156 339.817 161C339.817 165 343.15 172 344.817 175C329.617 166.2 325.484 146 325.317 137L295.817 166C294.65 169.333 292.217 177.7 291.817 184.5C283.817 177.3 285.15 153.5 286.817 142.5L285.817 133L278.317 141.5C278.15 149.5 277.217 164.4 274.817 160C271.918 154.686 270.887 141.903 271.272 141.496Z" fill="#CB8D5E" fill-opacity="0.6"/>
<path d="M223.436 207C208.936 203.5 211.984 182.167 214.317 171.5L216.817 158.5C225.15 155.167 240.917 150.5 237.317 158.5C232.817 168.5 233.817 182 233.317 181.5C231.317 179.5 229.484 175.667 228.817 174C228.65 174.333 228.017 177.7 226.817 188.5C224.817 201.5 223.936 207 223.436 207Z" fill="#CB8D5E" fill-opacity="0.6"/>
<path d="M272.701 155.169C266.579 152.108 259.838 148.577 256.3 146.294C260.514 146.326 266.545 147.058 272.047 149.168C277.808 151.376 282.935 155.072 284.853 161C284.691 160.931 284.498 160.845 284.274 160.745C283.587 160.436 282.624 159.99 281.461 159.44C279.135 158.339 276.012 156.824 272.701 155.169Z" fill="#701F1E" stroke="black" stroke-width="0.6"/>
<path d="M326.546 160.734L326.569 160.706L326.585 160.674C327.012 159.824 329.07 157.962 333.792 158.353L333.801 158.354L333.809 158.354L349.071 158.775C344.82 159.616 339.334 160.792 334.281 162.062C331.18 162.842 328.238 163.658 325.843 164.454C324.406 164.932 323.15 165.408 322.173 165.87L326.546 160.734Z" fill="#701F1E" stroke="black" stroke-width="0.6"/>
<path d="M209.817 190C205.817 190.167 199.317 190.1 197.317 188.5C196.817 188.5 207.817 183.5 209.817 174.5C205.15 174.333 195.417 173.2 193.817 170C193.317 169.5 207.817 167.5 209.817 149C209.817 148.5 193.317 144.5 189.817 136.5C189.317 136.5 208.317 135.5 213.817 121C213.817 120.5 194.817 107.5 185.817 94C184.817 93.5 203.817 97.5 218.317 87C217.817 87 206.826 84.0024 200.325 77.0085C200.307 77.0029 200.304 77 200.317 77C200.32 77.0028 200.322 77.0057 200.325 77.0085C201.005 77.2215 223.559 81.3089 232.817 74C232.317 74 226.317 50 235.817 42C235.817 42.5 232.817 27.5 236.817 22.5C236.817 22 250.817 54 279.317 45C279.317 44.5021 280.805 35.0796 285.261 31.5444C285.278 31.5152 285.297 31.5 285.317 31.5C285.298 31.5147 285.279 31.5295 285.261 31.5444C284.861 32.2265 285.399 40.5616 287.317 42C285.484 36 284.217 22.3 293.817 15.5C293.151 24.1624 295.415 43.2812 309.796 50.4894C309.109 49.899 300.607 24.8522 324.817 12.5C322.317 15.8333 317.417 23.4 317.817 27C317.817 27.5 320.817 10 338.317 2C335.984 6.33333 331.617 16.3 332.817 21.5C332.317 22.5 338.817 39 357.317 42C361.984 44 372.517 50.3 377.317 59.5L369.817 45C375.15 48.6667 386.217 58.4 387.817 68C388.316 68 387.82 63.5225 394.268 61.5151C394.285 61.5051 394.301 61.5 394.317 61.5C394.301 61.505 394.285 61.51 394.268 61.5151C393.858 61.7588 393.137 64.8987 392.817 66.5C394.984 61.6667 398.317 49.6 394.317 40C394.317 39.5 408.317 58 403.817 82.5C403.817 82.9965 412.198 78.5628 414.764 68.2197C414.762 68.0753 414.777 68 414.817 68C414.8 68.0735 414.782 68.1468 414.764 68.2197C414.779 69.8607 416.806 80.4303 405.317 91C404.818 91 427.27 95.9895 432.8 109.956C432.836 109.985 432.842 110 432.817 110C432.811 109.985 432.806 109.971 432.8 109.956C432.122 109.415 421.039 104.101 415.817 106C422.15 110.167 435.217 122.3 436.817 137.5C437.316 137.5 453.255 150.947 463.259 146.029C463.28 146.01 463.3 146 463.317 146C463.298 146.01 463.278 146.019 463.259 146.029C462.67 146.551 460.426 153.981 448.695 157.877C449.761 157.854 453.057 158.142 458.317 154.5C455.817 160.333 447.817 172.5 435.817 174.5C437.984 175.333 442.917 177.9 445.317 181.5C439.15 180.667 425.517 181.9 420.317 193.5C420.317 195.833 423.217 201.6 434.817 206C432.984 208.167 425.217 210.7 408.817 203.5C411.984 206.167 420.017 211.2 426.817 210C424.817 212 417.917 215.9 406.317 215.5C403.65 218.333 399.517 226.3 404.317 235.5C400.65 234.833 392.917 232.4 391.317 228C387.317 231.5 381.117 240.7 388.317 249.5C387.817 249.5 375.817 257 364.817 248.5C364.317 248 356.817 257 362.317 264.5C358.65 263.667 350.817 260.6 348.817 255C349.217 254.2 345.77 260 343.436 260C343.77 264.167 342.517 267.5 339.317 271.5C338.302 270.484 338.817 267.5 335.936 266C341.436 261 347.936 254.5 351.436 251C356.436 250 363.019 250.316 371.1 243C371.1 243 393.936 223.331 395.936 206C396.436 203 392.936 199 388.436 203.5C378.436 216 373.436 218.5 368.936 221.5C374.436 213 376.41 205.105 376.436 204.5C363.53 192.09 363.955 182.658 364.426 172.227L364.436 172C347.436 172.5 342.341 160.708 341.936 160C341.936 160 341.936 165 345.436 171.5C331.936 158.5 330.287 139.78 329.436 137.5C325.936 137.5 316.347 146.594 316.936 147.5C313.302 152.804 311.391 156.235 308.436 164L309.436 155C307.007 156.398 305.869 157.312 303.936 159C301.061 161.448 299.78 163.119 297.936 166.5C296.413 172.951 296.335 176.562 296.936 183C294.192 180.273 292.998 178.518 291.436 175C289.41 170.214 288.694 167.469 287.936 162.5C286.318 157.68 285.807 154.82 285.436 149.5C286.082 143.954 286.657 141.651 287.936 138.5C285.751 139.846 284.677 140.996 282.936 143.5C281.196 146.752 280.345 148.598 279.436 152C277.749 157.854 277.316 161.139 276.936 167C274.755 160.636 274.074 157.025 273.936 150.5C274.347 146.654 274.726 144.473 275.936 140.5C277.452 136.527 278.325 134.427 279.936 131C273.813 135.015 267.85 136.549 254.436 138.5C241.023 140.451 245.436 148.5 245.436 148.5L238.936 160.5L234.436 174L232.436 164L235.936 150.5L227.936 171V191C227.936 191 223.793 186 221.436 175C219.079 164 220.436 156.5 220.436 156.5C220.436 156.5 218.368 158.784 217.436 160.5C216.169 162.834 215.436 167 215.436 167L209.817 190Z" fill="url(#paint0_linear_0_138)"/>
<path d="M388.436 203.5C392.936 199 396.436 203 395.936 206C393.936 223.331 371.1 243 371.1 243C363.019 250.316 356.436 250 351.436 251C347.936 254.5 341.436 261 335.936 266C338.817 267.5 338.302 270.484 339.317 271.5C342.517 267.5 343.77 264.167 343.436 260C345.77 260 349.217 254.2 348.817 255C350.817 260.6 358.65 263.667 362.317 264.5C356.817 257 364.317 248 364.817 248.5C375.817 257 387.817 249.5 388.317 249.5C381.117 240.7 387.317 231.5 391.317 228C392.917 232.4 400.65 234.833 404.317 235.5C399.517 226.3 403.65 218.333 406.317 215.5C417.917 215.9 424.817 212 426.817 210C420.017 211.2 411.984 206.167 408.817 203.5C425.217 210.7 432.984 208.167 434.817 206C423.217 201.6 420.317 195.833 420.317 193.5C425.517 181.9 439.15 180.667 445.317 181.5C442.917 177.9 437.984 175.333 435.817 174.5C447.817 172.5 455.817 160.333 458.317 154.5C451.817 159 448.317 157.5 448.317 158C460.817 154 462.817 146 463.317 146C453.317 151 437.317 137.5 436.817 137.5C435.217 122.3 422.15 110.167 415.817 106C421.317 104 433.317 110 432.817 110C427.317 96 404.817 91 405.317 91C417.817 79.5 414.317 68 414.817 68C412.317 78.5 403.817 83 403.817 82.5C408.317 58 394.317 39.5 394.317 40C398.317 49.6 394.984 61.6667 392.817 66.5C393.15 64.8333 393.917 61.5 394.317 61.5C387.817 63.5 388.317 68 387.817 68C386.217 58.4 375.15 48.6667 369.817 45L377.317 59.5C372.517 50.3 361.984 44 357.317 42C338.817 39 332.317 22.5 332.817 21.5C331.617 16.3 335.984 6.33333 338.317 2C320.817 10 317.817 27.5 317.817 27C317.417 23.4 322.317 15.8333 324.817 12.5C300.317 25 309.317 50.5 309.817 50.5C295.417 43.3 293.15 24.1667 293.817 15.5C284.217 22.3 285.484 36 287.317 42C285.317 40.5 284.817 31.5 285.317 31.5C280.817 35 279.317 44.5 279.317 45C250.817 54 236.817 22 236.817 22.5C232.817 27.5 235.817 42.5 235.817 42C226.317 50 232.317 74 232.817 74C223.317 81.5 199.817 77 200.317 77C206.817 84 217.817 87 218.317 87C203.817 97.5 184.817 93.5 185.817 94C194.817 107.5 213.817 120.5 213.817 121C208.317 135.5 189.317 136.5 189.817 136.5C193.317 144.5 209.817 148.5 209.817 149C207.817 167.5 193.317 169.5 193.817 170C195.417 173.2 205.15 174.333 209.817 174.5C207.817 183.5 196.817 188.5 197.317 188.5C199.317 190.1 205.817 190.167 209.817 190L215.436 167C215.436 167 216.169 162.834 217.436 160.5C218.368 158.784 220.436 156.5 220.436 156.5C220.436 156.5 219.079 164 221.436 175C223.793 186 227.936 191 227.936 191V171L235.936 150.5L232.436 164L234.436 174L238.936 160.5L245.436 148.5C245.436 148.5 241.023 140.451 254.436 138.5C267.85 136.549 273.813 135.015 279.936 131C278.325 134.427 277.452 136.527 275.936 140.5C274.726 144.473 274.347 146.654 273.936 150.5C274.074 157.025 274.755 160.636 276.936 167C277.316 161.139 277.749 157.854 279.436 152C280.345 148.598 281.196 146.752 282.936 143.5C284.677 140.996 285.751 139.846 287.936 138.5C286.657 141.651 286.082 143.954 285.436 149.5C285.807 154.82 286.318 157.68 287.936 162.5C288.694 167.469 289.41 170.214 291.436 175C292.998 178.518 294.192 180.273 296.936 183C296.335 176.562 296.413 172.951 297.936 166.5C299.78 163.119 301.061 161.448 303.936 159C305.869 157.312 307.007 156.398 309.436 155L308.436 164C311.391 156.235 313.302 152.804 316.936 147.5C316.347 146.594 325.936 137.5 329.436 137.5C330.287 139.78 331.936 158.5 345.436 171.5C341.936 165 341.936 160 341.936 160C342.341 160.708 347.436 172.5 364.436 172C363.962 182.522 363.436 192 376.436 204.5C376.41 205.105 374.436 213 368.936 221.5M388.436 203.5C378.436 216 373.436 218.5 368.936 221.5M388.436 203.5L378.436 214.402L368.936 221.5" stroke="black"/>
<g filter="url(#filter0_f_0_138)">
<path d="M200.936 77.5C208.415 78.9958 221.86 80.4916 232.843 74.5504C232.833 74.4505 232.861 74.4262 232.936 74.5C232.905 74.5169 232.874 74.5337 232.843 74.5504C232.903 75.127 234.226 78.2215 234.936 79.5C228.77 82.5 214.136 84.7 200.936 77.5Z" fill="#FFD7B7" fill-opacity="0.8"/>
<path d="M186.947 94.5C203.936 96.5 214.936 90.3333 218.936 87C220.536 87 226.436 87.3333 230.436 86.5C201.936 106.5 186.447 94.5 186.947 94.5Z" fill="#FFD7B7" fill-opacity="0.8"/>
<path d="M206.436 103C216.936 106.796 233.936 103.5 239.436 97.5C235.936 103.5 221.436 114 206.436 103Z" fill="#FFD7B7" fill-opacity="0.8"/>
<path d="M279.436 99C272.436 110 257.447 112.833 249.447 111C269.447 118.6 282.603 107.5 286.436 101.5L279.436 99Z" fill="#FFD7B7" fill-opacity="0.8"/>
<path d="M246.447 132.5C259.936 133.5 267.936 126 272.936 121C278.936 119.5 278.447 123 278.447 123.5C262.447 138 245.947 132.5 246.447 132.5Z" fill="#FFD7B7" fill-opacity="0.8"/>
<path d="M190.947 137C207.436 134 213.936 124.833 213.936 120.5C215.936 118.9 219.78 122.833 220.947 124.5C209.447 143 190.447 137 190.947 137Z" fill="#FFD7B7" fill-opacity="0.8"/>
<path d="M224.947 136C224.264 136.871 223.494 137.856 222.687 138.953C220.61 143.089 219.07 150.132 218.447 154C221.947 151.667 228.947 147.1 228.947 147.5C222.147 156.7 225.447 180.333 227.947 191C214.947 164.5 220.947 156 219.947 156.5C215.947 161.7 214.947 168.333 214.947 171C211.503 156.402 217.783 145.614 222.687 138.953C223.384 137.564 224.142 136.503 224.947 136Z" fill="#FFD7B7" fill-opacity="0.8"/>
<path d="M240.947 141.5C240.704 141.851 240.448 142.247 240.182 142.684C237.955 147.588 235.492 164.691 234.447 173.5C231.85 160.518 236.792 148.253 240.182 142.684C240.441 142.114 240.697 141.708 240.947 141.5Z" fill="#FFD7B7" fill-opacity="0.8"/>
<path d="M276.947 167C268.936 145 282.936 125.833 290.436 118.5C276.946 132.989 276.947 166.451 276.947 166.999V167Z" fill="#FFD7B7" fill-opacity="0.8"/>
<path d="M304.936 118C298.27 129.167 287.436 166 296.947 183C286.436 173.5 281.436 135 304.936 118Z" fill="#FFD7B7" fill-opacity="0.8"/>
<path d="M374.447 172.5C360.847 168.9 353.113 157.667 350.947 152.5C350.113 155.5 348.547 161.5 348.947 161.5C358.147 169.5 369.78 172.167 374.447 172.5Z" fill="#FFD7B7" fill-opacity="0.8"/>
<path d="M431.447 160C411.847 162.8 405.936 157 398.436 146C392.936 147 397.447 157 397.947 157.5C412.947 171 430.947 160 431.447 160Z" fill="#FFD7B7" fill-opacity="0.8"/>
<path d="M413.947 201.5C401.547 198.7 395.113 184.667 393.447 178C385.947 178 388.947 189 388.947 189.5C394.947 198.7 408.113 201.333 413.947 201.5Z" fill="#FFD7B7" fill-opacity="0.8"/>
<path d="M371.947 179C372.893 186.094 376.881 201.868 385.435 211.002C385.969 211.54 386.476 212.041 386.947 212.5C386.427 212.024 385.924 211.524 385.435 211.002C378.783 204.302 367.817 191.924 367.447 186C366.947 186 367.447 172 371.947 179Z" fill="#FFD7B7" fill-opacity="0.8"/>
<path d="M360.936 104.5C350.436 106 346.113 100.5 344.447 98.5C339.247 81.7 347.103 77.1667 351.436 77.5C347.936 96.5 359.926 103 360.936 104.5Z" fill="#FFD7B7" fill-opacity="0.8"/>
<path d="M259.936 68.5C265.77 74.6667 284.236 85.3 305.436 76.5C295.436 83.8333 271.136 92.1 259.936 68.5Z" fill="#FFD7B7" fill-opacity="0.8"/>
</g>
<g filter="url(#filter1_f_0_138)">
<path d="M236.436 23.5C243.436 32 252.436 52.5 279.936 45C266.77 50.8333 243.936 52.5 236.436 23.5Z" fill="#FFD7B7" fill-opacity="0.8"/>
<path d="M293.436 16C293.436 25 293.436 41.5 309.436 50.5C298.603 49.5 285.436 37 293.436 16Z" fill="#FFD7B7" fill-opacity="0.8"/>
<path d="M346.936 47C345.936 46.5 312.936 35 336.936 3C334.593 7.76274 332.235 14.2413 332.263 22C333.987 27.3333 340.736 38.7 353.936 41.5C360.314 43.7779 370.927 49.1276 377.603 59.7429C375.485 55.7615 372.023 49.0636 369.936 45C374.936 50.5 383.436 54.4 387.436 68C387.036 67.6 384.436 66.1667 382.936 65.5H381.436H376.936C372.603 58.6667 359.836 44.3 343.436 41.5C340.583 39.9631 335.632 35.2449 333.249 30.0598C334.937 36.6351 338.994 42.7952 346.936 47Z" fill="#FFD7B7" fill-opacity="0.8"/>
<path d="M394.436 41.5C398.603 45.6667 406.936 64 403.436 82.5C402.936 72.6667 399.636 50.7 394.436 41.5Z" fill="#FFD7B7" fill-opacity="0.8"/>
<path d="M432.436 109.5C426.436 98 406.603 90.3333 403.436 92C399.936 93.5 394.836 96.2 402.436 95C410.036 93.8 425.936 104.333 432.436 109.5Z" fill="#FFD7B7" fill-opacity="0.8"/>
<path d="M436.436 137.5C432.936 116.5 415.436 106.5 414.936 106C413.603 107.167 410.036 109.5 414.436 111.5C419.936 114 435.936 137.5 436.436 137.5Z" fill="#FFD7B7" fill-opacity="0.8"/>
<path d="M462.436 147C450.936 148.5 440.27 141 436.936 138C436.936 141.2 447.436 148.333 452.936 151L452.91 151.053C452.567 151.742 451.834 153.212 447.936 157.5C455.536 155.9 460.603 150.167 462.436 147Z" fill="#FFD7B7" fill-opacity="0.8"/>
<path d="M433.936 206C426.936 204.5 417.436 195 417.436 189C417.436 193.333 415.336 197.2 416.936 200C418.536 202.8 428.936 206 433.936 206Z" fill="#FFD7B7" fill-opacity="0.8"/>
<path d="M443.436 180.5C440.236 178.9 432.603 178.833 429.436 179.5C423.836 178.3 426.436 175.667 427.436 174C435.936 172 447.436 182.5 443.436 180.5Z" fill="#FFD7B7" fill-opacity="0.8"/>
</g>
<path d="M232.936 74C233.436 76.1667 235.236 81.5 238.436 85.5" stroke="black" stroke-linecap="round"/>
<path d="M235.936 42C236.436 44.1667 238.236 49.5 241.436 53.5" stroke="black" stroke-linecap="round"/>
<path d="M239.317 97C234.15 101.5 220.217 108.8 205.817 102C209.817 109 222.617 122.4 241.817 120" stroke="black" stroke-linecap="round"/>
<path d="M425.817 127C429.317 131.833 438.117 141.9 445.317 143.5C444.817 143.5 431.317 144 417.817 135" stroke="black"/>
<path d="M361.817 121C361.984 126.333 364.917 139.4 375.317 149" stroke="black"/>
<path d="M398.817 145.5C401.484 152.5 411.917 164.9 432.317 158.5C431.317 158 426.317 174.5 402.817 165.5" stroke="black"/>
<path d="M376.317 204.5C375.484 208.5 372.917 217.4 369.317 221C372.65 219.167 380.017 214.4 382.817 210" stroke="black"/>
<path d="M382.817 192C385.15 195 394.617 201.2 413.817 202C413.317 201.5 396.317 194.5 393.817 177.5" stroke="black"/>
<path d="M363.817 130.5C355.65 148.667 349.117 190.6 388.317 213C388.043 213 380.268 202.948 375.017 189.5M372.817 153C368.069 164.984 370.682 178.399 375.017 189.5M381.817 165.5C379.117 170.833 373.977 183.1 375.017 189.5" stroke="black"/>
<path d="M288.317 152.5C287.317 158.833 287.617 173.8 296.817 183C295.817 174.833 297.017 155.2 309.817 142" stroke="black"/>
<path d="M279.317 45C277.817 53.5 280.817 71.6 304.817 76C297.65 80 278.617 84.1 259.817 68.5C260.317 74 261.317 85.5 275.817 90C275.317 89.5 266.817 89 264.317 88C261.817 87 283.817 108 305.817 102" stroke="black"/>
<path d="M351.817 77C350.484 83.6667 350.417 98.5 360.817 104.5C360.317 104.5 341.817 111 332.817 84" stroke="black"/>
<path d="M387.317 89.5C384.484 97.5 380.917 116.8 389.317 130C387.484 122 386.317 103.8 396.317 95" stroke="black"/>
<path d="M341.5 155.004C344.834 159.504 356 169.004 374 171.004C366.834 172.671 350.3 172.904 341.5 160.504L343.936 169C338.368 163.869 330.655 151.944 330.634 137.161C324.494 139.845 312.137 148.283 309 162.004C310.496 154.36 316.962 137.802 330.878 132.55C331.579 126.043 333.847 119.092 338.436 112C338.936 114.5 330.436 152 341.5 155.004Z" fill="#AB2D17"/>
<path d="M296.5 181.004C289.936 159 302.603 146.833 309.436 142.5C304.034 148.088 301.056 153.416 298.936 160.504C299.837 157.717 307.024 151.5 310.5 149.5L309.436 155C305.836 156.6 300.024 162.833 297.436 166C296.049 172.241 296.43 177.406 296.5 181.004Z" fill="#AB2D17"/>
<path d="M288.436 137.5C283.936 140 273.636 148.5 276.436 164.5C277.103 157.333 280.936 142.5 288.436 137.5Z" fill="#AB2D17"/>
<path d="M413.936 201.5C418.816 204.265 427.124 207.919 433.47 206.606C433.785 206.483 433.936 206.427 433.936 206.5C433.782 206.539 433.627 206.574 433.47 206.606C431.642 207.325 424.292 210.325 408.936 203.5C408.536 203.1 408.936 202 413.936 201.5Z" fill="#AB2D17"/>
<path d="M444.936 181C430.536 176.6 420.27 184.333 416.936 188.5L419.936 193.5C424.436 182 439.436 180 444.936 181Z" fill="#AB2D17"/>
<path d="M426.936 174C435.27 171.167 452.436 163 457.436 155.5C454.603 162.833 442.936 177 426.936 174Z" fill="#AB2D17"/>
<path d="M428.436 160.5C410.836 168.1 399.603 160 395.936 155.5C395.936 160 401.936 165 402.436 165C420.936 172 428.936 164.167 431.436 158.5L428.436 160.5Z" fill="#AB2D17"/>
<path d="M387.936 112C385.536 107.2 386.27 95.3333 386.936 90C382.436 110 385.436 122.667 388.436 127L387.936 112Z" fill="#AB2D17"/>
<path d="M409.936 76.5L404.936 91C414.136 83 414.77 73 413.936 69L409.936 76.5Z" fill="#AB2D17"/>
<path d="M332.436 84.5C334.936 89.3333 343.936 100.1 359.936 104.5C353.603 106.667 340.936 104.5 332.436 84.5Z" fill="#AB2D17"/>
<path d="M277.936 90.5C272.336 86.9 263.436 75.1667 260.436 69.5C261.436 83.5 269.77 87.1667 274.436 89H265.436C280.936 102.5 297.603 104 304.936 102C290.936 101.2 274.77 93.3333 268.436 89.5C270.77 89.6667 277.936 90.9 277.936 90.5Z" fill="#AB2D17"/>
<path d="M248.436 110.5C252.762 112.497 264.694 115.788 277.867 113.015C277.912 112.97 277.936 112.963 277.936 113C277.913 113.005 277.89 113.01 277.867 113.015C277.424 113.455 274.949 117.579 273.436 120C267.77 120.333 256.936 119 248.436 110.5Z" fill="#AB2D17"/>
<path d="M244.436 131.5C253.603 132.667 274.336 132.8 283.936 124C283.536 124.4 281.103 128.5 279.936 130.5C275.688 133.686 264.436 138 256.555 137C237.055 154.5 237.685 163.167 234.436 174C233.236 154.4 245.436 140 252.376 135.5C249.725 134.663 247.054 133.37 244.436 131.5Z" fill="#AB2D17"/>
<path d="M205.436 102C205.9 102.464 206.433 102.957 207.032 103.468C209.301 104.135 211.624 104.67 213.936 105C212.68 105.205 211.17 105.356 209.509 105.404C217.304 111.009 231.639 117.282 248.436 113L241.936 119.5C234.931 120.123 221.818 120.455 208.303 105.42C200.593 105.402 190.382 103.084 186.936 94C190.303 96.3308 197.975 100.714 206.483 103.304C206.134 102.88 205.785 102.445 205.436 102Z" fill="#AB2D17"/>
<path d="M220.936 139.5C213.336 143.1 190.436 137 190.436 137C190.436 137 192.936 143 209.936 148.5C209.936 159.7 202.936 168 193.936 170C197.936 173.5 205.555 173.667 210.055 174C210.055 174 209.055 178.5 206.555 181.5C204.055 184.5 200.555 187 197.436 188.5C203.936 190 208.936 189.5 209.436 189.5C209.182 189.51 210.936 184 210.936 184C210.936 184 211.936 181 214.436 169.5C211.936 160.5 215.936 149 215.936 149L220.936 139.5Z" fill="#AB2D17"/>
<path d="M227.364 188.185C221.533 162.371 233.465 146.48 240.436 141.5C228.798 158.861 227.114 185.03 227.364 188.185C227.388 188.29 227.412 188.395 227.436 188.5C227.405 188.5 227.381 188.392 227.364 188.185Z" fill="#AB2D17"/>
<path d="M228.936 82.5C216.536 84.1 205.103 79.5 200.936 77C204.936 81 206.436 81.5 213.936 85C221.436 88.5 227.936 84.8333 228.936 82.5Z" fill="#AB2D17"/>
<path d="M377.317 177C382.984 183.667 395.936 195.5 411.817 201.5C411.319 201.5 389.15 202.49 375.513 184.264C375.492 184.383 375.472 184.5 375.451 184.617C376.259 187.031 380.414 196.048 389.725 202.869C389.725 202.869 391.555 204.113 394.891 206.094C402.535 210.106 412.767 212.373 426.177 210.025C426.275 209.957 426.317 209.944 426.317 210C426.27 210.008 426.224 210.016 426.177 210.025C425.399 210.565 421.084 214.611 406.317 215.5C402.436 219 399.117 227.5 404.317 235.5C403.817 235.5 395.936 233.5 391.317 228C389.937 227.5 378.954 239.98 387.914 249.477C387.929 249.479 387.936 249.487 387.936 249.5C387.929 249.492 387.922 249.485 387.914 249.477C387.367 249.377 376.613 256.28 364.436 248C364.436 248 364.364 248.045 364.219 248.125C362.931 249.32 356.554 257.726 362.317 264.5C359.436 262.5 354.936 262.5 348.936 256C348.536 255.6 346.936 258 344.936 259C344.142 259.397 343.765 259.479 343.599 259.433C343.723 265.262 339.462 270.5 339.462 270.5C339.462 270.5 338.436 267 336.936 266C335.436 265.5 338.936 265 341.936 260.5C341.936 260.5 342.543 260.004 343.5 259.176C343.529 259.082 343.582 259 343.582 259C343.583 259.033 343.585 259.067 343.587 259.1C345.524 257.421 348.805 254.461 351.436 251.5C359.231 250.634 363.275 248.643 364.219 248.125C364.357 247.997 364.436 247.952 364.436 248C364.436 248 370.936 245 377.936 237C387.436 227.5 393.436 218 396.436 207C395.89 206.683 395.375 206.381 394.891 206.094C393.016 205.109 391.297 204.02 389.725 202.869L384.36 208.646C384.672 210.003 384.252 210.322 383.263 209.828L380.317 213L371.436 219L376.936 205.5C380.071 207.851 382.527 207.284 384.14 207.873C383.659 206.412 382.625 204.167 380.936 201C377.736 195 375.603 189.333 374.936 187.5C375.088 186.74 375.257 185.732 375.451 184.617C375.318 184.219 375.276 184 375.317 184C375.382 184.089 375.448 184.177 375.513 184.264C375.951 181.781 376.52 178.861 377.317 177Z" fill="#AB2D17"/>
<path d="M364.583 144C368.583 147.2 373.249 148.667 375.083 149C370.283 145 365.103 136.333 363.436 132C358.936 142.5 357.436 161.5 357.936 163.5C359.936 199 387.583 212.5 388.083 212.5C359.583 189.5 364.083 144 364.583 144Z" fill="#AB2D17"/>
<path d="M297.817 166.5C299.317 163.667 303.717 157.5 309.317 155.5C309.984 150.5 313.317 138.9 321.317 132.5C320.817 132.5 309.817 140.5 308.317 164.5C310.484 157.167 317.817 141.4 329.817 137C330.15 130.667 332.317 116.9 338.317 112.5C338.317 112 316.317 139 345.317 171.5C344.817 171.5 334.317 146 344.317 131.5C340.15 139 335.217 156.9 348.817 168.5C352.15 170.5 361.917 173.9 374.317 171.5C367.817 169.5 354.117 162.8 351.317 152" stroke="black"/>
<path d="M279.317 98.5C276.317 103.667 266.017 113.3 248.817 110.5C248.317 110.5 255.817 121 273.317 120.5C272.817 120.5 263.317 135 244.317 131.5C244.317 131 255.817 144 280.817 130.5C282.984 126.833 288.017 119.2 290.817 118C282.317 125.5 267.717 145.8 277.317 167C276.817 167 278.317 144.5 288.317 138C287.817 137.5 282.817 151.5 288.317 163C287.65 151.167 290.017 125.6 304.817 118" stroke="black" stroke-linecap="round"/>
<path d="M208.817 148.5C210.15 148.833 213.517 149.3 216.317 148.5C217.65 145.5 221.417 138.5 225.817 134.5C225.317 134.5 209.317 149 215.317 172C215.15 168.667 215.917 160.9 220.317 156.5C219.484 163 219.917 179 228.317 191C226.65 184.5 226.917 165.4 241.317 141C236.984 147.167 229.617 162.5 234.817 174.5C235.484 166.667 241.517 147.7 258.317 136.5" stroke="black" stroke-linecap="round"/>
<path d="M97.9362 410C99.6029 418.667 104.017 437.4 106.817 443" stroke="black" stroke-linecap="round"/>
<path d="M125.317 443C121.717 440.6 112.984 422.833 109.317 414.5C110.517 421.3 117.484 436.5 120.817 443H125.317Z" fill="black"/>
<path d="M129.817 391.5C121.817 388.3 104.817 374.167 97.3171 367.5C97.1504 367.5 96.7171 368.6 96.3171 373C99.9171 378.6 117.484 391 125.817 396.5C129.317 399 134.817 397 134.817 397.5C135.317 406.5 140.317 431.167 143.317 442.5H150.317C145.917 436.5 142.15 409 140.817 396C154.817 393.2 170.984 381.5 177.317 376L176.817 369.5C176.817 369.5 176.621 369.745 176.317 370C159.117 384.4 138.15 390.333 129.817 391.5Z" fill="white"/>
<path d="M69.3171 330.5C75.3171 337.5 90.0171 352.1 100.817 354.5C101.762 348.041 103.244 334.405 102.052 328.876C101.853 328.304 101.764 328 101.817 328C101.905 328.263 101.983 328.556 102.052 328.876C103.705 333.644 112.888 357.018 109.317 378C109.15 395.667 111.317 433.3 121.317 442.5H97.8171C98.1504 436.167 99.0171 422.6 99.8171 419C96.4362 405.5 94.4171 377.203 96.8171 367C96.3171 367 73.3171 339 69.3171 330.5Z" fill="black" fill-opacity="0.3"/>
<path d="M385.817 443L389.317 411.5C385.317 429.1 377.484 440 373.817 443H385.817Z" fill="black" fill-opacity="0.3"/>
<path d="M385.317 384C379.317 386.8 380.817 378.833 382.317 374.5C384.717 370.1 384.317 362 383.817 358.5L385.817 362.5L386.817 371C386.484 374.167 385.717 381.2 385.317 384Z" fill="black" fill-opacity="0.3"/>
<path d="M322.317 185C323.984 183.333 329.817 180.3 339.817 181.5" stroke="black" stroke-linecap="round"/>
<path d="M266.817 170.087C268.801 170.062 273.41 171.521 275.98 177.563" stroke="black" stroke-linecap="round"/>
<path d="M243.317 175C248.984 171 264.417 168.7 280.817 191.5C280.317 191 256.317 173 243.317 175Z" fill="#030000"/>
<path d="M317.317 201C326.15 195.667 346.817 187.9 358.817 199.5C349.15 197.5 327.317 195 317.317 201Z" fill="#030000"/>
<path d="M294.317 223L283.817 223.5L288.317 230.5L296.817 231.5L300.817 228L294.317 223Z" fill="url(#paint1_linear_0_138)"/>
<path d="M294.817 230L298.817 228" stroke="black" stroke-linecap="round"/>
<path d="M286.317 224.5L288.317 227.5" stroke="black" stroke-linecap="round"/>
<path d="M296.317 206L295.317 213.5" stroke="black" stroke-linecap="round"/>
<path d="M298.317 209C298.317 209.8 297.65 212.333 297.317 213.5" stroke="black" stroke-linecap="round"/>
<path d="M302.317 203.5L299.317 214" stroke="black" stroke-linecap="round"/>
<path d="M356.317 206.8C356.483 206.8 356.617 206.666 356.617 206.5C356.617 206.334 356.483 206.2 356.317 206.2V206.8ZM352.817 206.8H356.317V206.2H352.817V206.8Z" fill="black"/>
<path d="M240.817 183.3C240.651 183.3 240.517 183.166 240.517 183C240.517 182.834 240.651 182.7 240.817 182.7V183.3ZM244.317 183.3H240.817V182.7H244.317V183.3Z" fill="black"/>
<path d="M355.722 209.285C355.879 209.337 356.049 209.252 356.102 209.095C356.154 208.938 356.069 208.768 355.912 208.715L355.722 209.285ZM352.722 208.285L355.722 209.285L355.912 208.715L352.912 207.715L352.722 208.285Z" fill="black"/>
<path d="M241.412 185.785C241.255 185.837 241.085 185.752 241.032 185.595C240.98 185.438 241.065 185.268 241.222 185.215L241.412 185.785ZM244.412 184.785L241.412 185.785L241.222 185.215L244.222 184.215L244.412 184.785Z" fill="black"/>
<path d="M213.817 178.5C216.317 175 221.117 171.7 220.317 186.5V194C221.984 196.333 224.917 202.2 223.317 207C219.65 205.833 212.617 201.6 213.817 194" stroke="black"/>
<path d="M379.317 222C380.15 221.667 381.917 220.4 382.317 218C382.717 215.6 383.15 213.333 383.317 212.5C388.984 207.167 398.217 200.4 389.817 216M363.817 237C367.15 238.667 376.317 238 386.317 222" stroke="black" stroke-linecap="round"/>
<path d="M370.317 229.5L374.817 225" stroke="black" stroke-linecap="round"/>
<path d="M193.317 402C188.117 402.4 185.15 408.167 184.317 411C184.717 415.8 189.15 424.333 191.317 428C194.917 426.8 198.817 422.167 200.317 420C208.717 406.8 199.15 402.5 193.317 402Z" fill="white"/>
<path d="M179.817 416.5C182.217 415.3 182.817 412 182.817 410.5L183.317 409.5L187.317 422C187.317 422.167 186.717 423 184.317 425C181.117 427 178.65 423.833 177.817 422C176.617 420.4 178.65 417.667 179.817 416.5Z" fill="white"/>
<ellipse cx="189.317" cy="396" rx="2.5" ry="5" fill="white"/>
<ellipse cx="196.193" cy="397.058" rx="2.5" ry="3.5" transform="rotate(16.182 196.193 397.058)" fill="white"/>
<ellipse cx="201.015" cy="399.42" rx="1.89981" ry="2.84568" transform="rotate(35.4618 201.015 399.42)" fill="white"/>
<ellipse cx="205.015" cy="402.42" rx="1.89981" ry="2.84568" transform="rotate(46.6868 205.015 402.42)" fill="white"/>
<ellipse cx="207.227" cy="407.04" rx="1.89981" ry="2.84568" transform="rotate(61.0432 207.227 407.04)" fill="white"/>
<path d="M184.317 432C184.15 430.833 183.217 428.8 180.817 430C180.15 430.5 179.417 432 181.817 434C182.317 434.833 182.717 436.6 180.317 437C179.317 437 177.417 436.6 177.817 435" stroke="white" stroke-width="1.6" stroke-linecap="round"/>
<path d="M178.317 428C177.817 426.667 176.017 424.7 172.817 427.5C171.65 429 170.417 432.2 174.817 433" stroke="white" stroke-width="1.6" stroke-linecap="round"/>
<path d="M171.817 423L167.317 428" stroke="white" stroke-width="1.6" stroke-linecap="round"/>
<path d="M174.817 420L173.817 421" stroke="white" stroke-width="1.6" stroke-linecap="round"/>
<path d="M228.936 289.5C231.436 289.5 232.936 289 239.934 290C239.936 289.984 239.936 289.984 239.936 290C239.936 290 239.935 290 239.934 290C239.895 290.47 239.12 305.111 229.436 308.5C229.936 303 227.936 292.5 228.936 289.5Z" fill="#D2976B"/>
<path d="M317.936 327C314.936 323 313.436 321.5 311.936 320.5C308.336 325.3 308.603 333.167 308.936 337.5C311.336 335.5 315.936 330.167 317.936 327Z" fill="#D2976B"/>
<defs>
<filter id="filter0_f_0_138" x="182.935" y="64.5" width="252.512" height="152" filterUnits="userSpaceOnUse" color-interpolation-filters="sRGB">
<feFlood flood-opacity="0" result="BackgroundImageFix"/>
<feBlend mode="normal" in="SourceGraphic" in2="BackgroundImageFix" result="shape"/>
<feGaussianBlur stdDeviation="2" result="effect1_foregroundBlur_0_138"/>
</filter>
<filter id="filter1_f_0_138" x="234.436" y="1" width="230" height="207" filterUnits="userSpaceOnUse" color-interpolation-filters="sRGB">
<feFlood flood-opacity="0" result="BackgroundImageFix"/>
<feBlend mode="normal" in="SourceGraphic" in2="BackgroundImageFix" result="shape"/>
<feGaussianBlur stdDeviation="1" result="effect1_foregroundBlur_0_138"/>
</filter>
<linearGradient id="paint0_linear_0_138" x1="324.548" y1="2" x2="324.548" y2="271.5" gradientUnits="userSpaceOnUse">
<stop stop-color="#F97F31"/>
<stop offset="1" stop-color="#E25F32"/>
</linearGradient>
<linearGradient id="paint1_linear_0_138" x1="289.317" y1="230.5" x2="294.317" y2="223.5" gradientUnits="userSpaceOnUse">
<stop stop-color="#E0A179"/>
<stop offset="1" stop-color="#E0A179" stop-opacity="0"/>
</linearGradient>
</defs>
</svg>
