<svg width="485" height="722" viewBox="0 0 485 722" fill="none" xmlns="http://www.w3.org/2000/svg">
<path d="M472.956 513.83C452.048 596.15 362.287 679.083 320.02 709.922C381.194 650.258 361.642 554.109 344.219 513.83C356.609 513.83 372.612 537.745 379.065 549.703C449.725 523.27 380.033 279.706 379.065 287.259C378.097 294.811 321.956 402.432 334.539 359.006C347.123 315.58 250.328 158.869 220.322 158.869C196.316 158.869 152.888 244.462 134.174 287.259L160.309 341.069C96.0371 331.251 56.7384 229.358 45.1231 179.638C89.9713 117.016 187.799 -6.52779 220.322 0.269338C260.975 8.76574 391.648 196.631 391.648 194.743C391.648 192.854 429.398 158.869 429.398 158.869C429.398 158.869 460.695 253.903 472.956 294.811C481.667 333.517 493.863 431.509 472.956 513.83Z" fill="url(#paint0_linear_2_103)"/>
<path d="M166.478 711.263C215.191 731.31 289.233 718.765 320.02 709.922C267.957 717.248 227.121 673.066 213.356 650.125C208.844 656.009 214.957 672.317 218.577 679.736C179.65 703.668 83.4258 581.881 87.5488 584.171C91.6719 586.461 165.846 598.988 139.583 589.151C113.32 579.314 70.3264 476.281 81.2528 462.031C89.9939 450.631 148.541 461.174 176.722 467.87L194.071 499.876C212.573 465.778 176.011 410.012 155.418 386.391C107.823 384.887 10.5195 386.359 2.0702 404.279C-8.49137 426.68 37.7196 557.146 36.777 556.458C35.8343 555.771 5.12053 561.323 5.12053 561.323C5.12053 561.323 41.1709 610.792 57.1304 631.511C73.2826 649.742 117.765 691.216 166.478 711.263Z" fill="url(#paint1_linear_2_103)"/>
<defs>
<linearGradient id="paint0_linear_2_103" x1="92.2413" y1="409.111" x2="375.16" y2="721.37" gradientUnits="userSpaceOnUse">
<stop stop-color="#FF003D"/>
</linearGradient>
<linearGradient id="paint1_linear_2_103" x1="92.2413" y1="409.111" x2="375.16" y2="721.37" gradientUnits="userSpaceOnUse">
<stop stop-color="#FF003D"/>
</linearGradient>
</defs>
</svg>
