<svg width="69" height="69" viewBox="0 0 69 69" fill="none" xmlns="http://www.w3.org/2000/svg">
<rect width="69" height="69" rx="11" fill="url(#paint0_linear_20_5)"/>
<path d="M6.47539 38.7256C6.47539 35.1601 7.11063 32.0454 8.38111 29.3815C9.69257 26.7176 11.4548 24.6684 13.6679 23.234C15.922 21.7996 18.422 21.0824 21.1678 21.0824C23.5449 21.0824 25.594 21.5537 27.3153 22.4963C29.0366 23.4389 30.3686 24.7094 31.3112 26.3077V21.5127H43.3602V56H31.3112V51.205C30.3686 52.8033 29.0161 54.0738 27.2538 55.0164C25.5325 55.959 23.5039 56.4303 21.1678 56.4303C18.422 56.4303 15.922 55.7131 13.6679 54.2787C11.4548 52.8443 9.69257 50.7951 8.38111 48.1312C7.11063 45.4264 6.47539 42.2911 6.47539 38.7256ZM31.3112 38.7256C31.3112 36.5125 30.6964 34.7707 29.4669 33.5003C28.2784 32.2298 26.803 31.5946 25.0407 31.5946C23.2375 31.5946 21.7416 32.2298 20.5531 33.5003C19.3646 34.7298 18.7703 36.4715 18.7703 38.7256C18.7703 40.9387 19.3646 42.701 20.5531 44.0124C21.7416 45.2829 23.2375 45.9182 25.0407 45.9182C26.803 45.9182 28.2784 45.2829 29.4669 44.0124C30.6964 42.742 31.3112 40.9797 31.3112 38.7256Z" fill="white"/>
<path d="M60.185 10.4473L58.7711 39.7707H48.5049L47.0909 10.4473H60.185ZM53.6687 56.4918C51.5376 56.4918 49.8163 55.918 48.5049 54.7705C47.2344 53.582 46.5991 52.0861 46.5991 50.2829C46.5991 48.4796 47.2344 46.9837 48.5049 45.7952C49.8163 44.6067 51.5376 44.0124 53.6687 44.0124C55.7589 44.0124 57.4392 44.6067 58.7097 45.7952C60.0211 46.9837 60.6768 48.4796 60.6768 50.2829C60.6768 52.0451 60.0211 53.5205 58.7097 54.709C57.4392 55.8975 55.7589 56.4918 53.6687 56.4918Z" fill="#FFBADE"/>
<defs>
<linearGradient id="paint0_linear_20_5" x1="34.5" y1="0" x2="34.5" y2="69" gradientUnits="userSpaceOnUse">
<stop stop-color="#201F31"/>
<stop offset="0.53" stop-color="#403E65"/>
<stop offset="1" stop-color="#201F31"/>
</linearGradient>
</defs>
</svg>
